<svg xmlns="http://www.w3.org/2000/svg" xmlns:xlink="http://www.w3.org/1999/xlink" id="Layer_1" x="0" y="0" enable-background="new 0 0 144 144" version="1.1" viewBox="0 0 144 144" xml:space="preserve"><style type="text/css">.st0{fill:#179aff}</style><g><path d="M96.2,33.8c-0.5-0.9-1.4-1.5-2.5-1.5c-1.1,0-2,0.5-2.5,1.5L72.4,66.4c-0.7,1.2-0.2,2.6,0.9,3.3 c1.2,0.7,2.6,0.2,3.3-0.9l1.2-2l4.9-8.5l2.8-4.9l8.3-14.4l37.3,64.6h-16.6L93.2,67.1c-0.7-1.1-2.1-1.5-3.1-0.8l-0.2,0.1 c-1.1,0.7-1.5,2.1-0.8,3.1l31.2,54c-0.2,0.4-0.4,0.8-0.5,1.2c-0.7,2.6,0.8,5.3,3.5,6c2.6,0.7,5.3-0.8,6-3.5c0.7-2.6-0.8-5.3-3.5-6 c-0.4-0.1-0.9-0.2-1.3-0.2l-7.3-12.7h18c0.4,0,0.8-0.1,1.2-0.3c1.2-0.7,1.6-2.1,0.9-3.3L96.2,33.8z" class="st0"/><path d="M21.8,92.9h37.6c1.3,0,2.4-1.1,2.4-2.4c0-1.3-1.1-2.4-2.4-2.4h-2.3h-9.8h-5.6H25.1l37.3-64.6l8.3,14.4 L49.7,74.5c-0.7,1.1-0.2,2.6,0.8,3.1l0.2,0.1c1.1,0.7,2.6,0.2,3.1-0.8l31.2-54c0.4,0,0.9-0.1,1.3-0.2c2.6-0.7,4.1-3.4,3.5-6 s-3.4-4.1-6-3.5s-4.1,3.4-3.5,6c0.2,0.4,0.3,0.8,0.6,1.2l-7.3,12.7l-9.1-15.6c-0.2-0.3-0.5-0.7-0.9-0.9c-1.2-0.7-2.6-0.2-3.3,0.9 l-41,71.1c-0.5,0.9-0.5,2,0,2.9C19.9,92.4,20.8,92.9,21.8,92.9z" class="st0"/><path d="M88.9,90.9c-0.7-1.2-2.1-1.6-3.3-0.9c-1.2,0.7-1.6,2.1-0.9,3.3l1.2,2l4.9,8.5l2.8,4.9l8.3,14.4H27.3l8.3-14.4 h42.3c1.2,0,2.3-1.1,2.3-2.3V106c0-1.2-1.1-2.3-2.3-2.3H15.5c-0.2-0.4-0.5-0.7-0.8-1.1c-1.9-1.9-5-1.9-6.9,0c-1.9,1.9-1.9,5,0,6.9 c1.9,1.9,5,1.9,6.9,0c0.3-0.3,0.6-0.7,0.8-1.1h14.6L21,124.2c-0.2,0.3-0.3,0.7-0.3,1.2c0,1.3,1.1,2.4,2.4,2.4h82.2 c1.1,0,2-0.5,2.5-1.5c0.5-0.9,0.5-2,0-2.9L88.9,90.9z" class="st0"/></g></svg>