<?xml version="1.0" encoding="utf-8"?>
<!-- Generator: Adobe Illustrator 23.0.0, SVG Export Plug-In . SVG Version: 6.00 Build 0)  -->
<svg version="1.1" id="Layer_1" xmlns="http://www.w3.org/2000/svg" xmlns:xlink="http://www.w3.org/1999/xlink" x="0px" y="0px"
	 viewBox="0 0 425.2 221.2" style="enable-background:new 0 0 425.2 221.2;" xml:space="preserve">
<style type="text/css">
	.st0{fill-rule:evenodd;clip-rule:evenodd;fill:#FFFFFF;}
</style>
<g>
	<path class="st0" d="M190.7,77.5l37.9-65.6c0.5,0,1.1-0.1,1.6-0.2c3.2-0.8,5-4.1,4.2-7.3c-0.8-3.2-4.1-5-7.3-4.2
		c-3.2,0.8-5,4.1-4.2,7.3c0.1,0.5,0.4,1,0.6,1.5l-8.9,15.4l-11-19c-0.2-0.4-0.6-0.8-1.1-1.1c-1.4-0.8-3.2-0.3-4,1.1l-49.9,86.4
		c-0.6,1.1-0.6,2.4,0,3.5c0.6,1.1,1.7,1.8,3,1.8h45.7c1.6,0,2.9-1.3,2.9-2.9c0-1.6-1.3-2.9-2.9-2.9h-2.8h-11.9h-6.8h-20.2l45.3-78.5
		l10.1,17.5l-25.7,44.5c-0.8,1.3-0.3,3.1,1,3.8l0.2,0.1C188.2,79.3,190,78.8,190.7,77.5L190.7,77.5z M233.5,68.6l37.9,65.6
		c-0.3,0.5-0.5,1-0.6,1.5c-0.8,3.2,1,6.4,4.2,7.3c3.2,0.8,6.4-1,7.3-4.2c0.8-3.2-1-6.4-4.2-7.3c-0.5-0.1-1.1-0.2-1.6-0.2l-8.9-15.4
		h21.9c0.5,0,1-0.1,1.5-0.4c1.4-0.8,1.9-2.6,1.1-4l-49.9-86.4c-0.6-1.1-1.7-1.8-3-1.8c-1.3,0-2.4,0.6-3,1.8l-22.9,39.6
		c-0.8,1.4-0.3,3.2,1.1,4c1.4,0.8,3.2,0.3,4-1.1l1.4-2.4l5.9-10.3l3.4-5.9l10.1-17.5l45.3,78.5h-20.2l-25.7-44.5
		c-0.8-1.3-2.5-1.8-3.8-1l-0.2,0.1C233.2,65.5,232.8,67.3,233.5,68.6L233.5,68.6z M220,110.1l-75.8,0c-0.3-0.5-0.6-0.9-1-1.3
		c-2.3-2.3-6.1-2.3-8.4,0c-2.3,2.3-2.3,6.1,0,8.4c2.3,2.3,6.1,2.3,8.4,0c0.4-0.4,0.7-0.8,1-1.3h17.7l-11,19
		c-0.3,0.4-0.4,0.9-0.4,1.5c0,1.6,1.3,2.9,2.9,2.9l99.8,0c1.3,0,2.4-0.6,3-1.8c0.6-1.1,0.6-2.4,0-3.5l-22.9-39.6
		c-0.8-1.4-2.6-1.9-4-1.1c-1.4,0.8-1.9,2.6-1.1,4l1.4,2.4l5.9,10.3l3.4,5.9l10.1,17.5h-90.7l10.1-17.5H220c1.5,0,2.8-1.3,2.8-2.8
		v-0.3C222.8,111.4,221.5,110.1,220,110.1L220,110.1z"/>
	<path class="st0" d="M36,214H11.7l-3.6,6.7c-0.2,0.3-0.5,0.5-0.8,0.5H0l17-31.1c0.6-1,1.4-2.3,2.4-2.9c0.8-0.5,1.7-0.7,2.6-0.7h3
		c1.1,0,2.1,0.2,3.1,0.7c1,0.6,1.9,1.9,2.4,2.9l17.1,31.1h-7.1c-0.4,0-0.7-0.1-0.8-0.4L36,214L36,214z M76.3,186.4
		c0.6,0,1.2,0,1.9,0.1c0.5,0.1,0.9,0.2,1.3,0.5c0.4,0.3,0.7,0.7,1,1.1c0.4,0.6,0.7,1.2,1,1.9l10.5,24.3c0.2,0.4,0.6,0.7,1,0.7h0.6
		c0.5,0,0.8-0.2,1-0.7l10.5-24.3c0.3-0.7,0.6-1.3,1-1.9c0.3-0.4,0.6-0.8,1-1.1c0.4-0.3,0.8-0.4,1.3-0.5c0.6-0.1,1.2-0.1,1.8-0.1h5.4
		c1.1,0,2.6,0.1,3.3,1c0.7,0.9,0.8,2.7,0.8,3.9v29.1c0,0.2,0,0.3-0.1,0.5l-0.1,0.1l-0.1,0.1c-0.2,0.1-0.4,0.1-0.6,0.1h-5.2
		c-0.2,0-0.3,0-0.5-0.1l-0.1-0.1l-0.1-0.1c-0.1-0.1-0.1-0.3-0.1-0.5V194c0-0.5-0.3-0.9-0.8-0.9h-0.5c-0.5,0-0.8,0.2-1,0.7
		l-10.2,22.7c-0.3,0.8-0.7,1.5-1.2,2.2c-0.4,0.5-0.8,1.1-1.3,1.5c-0.5,0.4-1,0.6-1.5,0.8c-0.7,0.2-1.4,0.2-2.1,0.2H92
		c-0.7,0-1.4-0.1-2.1-0.2c-0.6-0.2-1.1-0.4-1.5-0.8c-0.5-0.4-0.9-0.9-1.3-1.5c-0.5-0.7-0.9-1.5-1.2-2.2l-10.2-22.7
		c-0.2-0.4-0.5-0.6-1-0.6h-0.5c-0.5,0-0.8,0.4-0.8,0.9v26.4c0,0.2,0,0.3-0.1,0.5l-0.1,0.1l-0.1,0.1c-0.2,0.1-0.3,0.1-0.5,0.1h-5.2
		c-0.2,0-0.4,0-0.6-0.1l-0.1-0.1l-0.1-0.1c-0.1-0.1-0.1-0.3-0.1-0.5v-29.1c0-1.2,0.1-2.9,0.8-3.9c0.7-0.9,2.2-1,3.3-1H76.3
		L76.3,186.4z M177.6,203.3l0.5,0.3c2.4,1.4,3.3,3.5,3.3,6.2v2.9c0,1.2-0.1,2.4-0.4,3.5c-0.3,1-0.7,1.9-1.4,2.6
		c-0.7,0.8-1.6,1.3-2.6,1.7c-1.3,0.5-2.8,0.6-4.1,0.6h-30.1c-0.8,0-1.2-0.3-1.2-1.2v-32.4c0-0.8,0.3-1.2,1.2-1.2h29.2
		c2.3,0,5.4,0.3,7.2,2c1.6,1.5,2.1,3.8,2.1,6v2.4c0,2.6-0.9,4.7-3.1,6.1L177.6,203.3L177.6,203.3z M208.8,186.4c0.2,0,0.3,0,0.5,0.1
		l0.1,0.1l0.1,0.1c0.1,0.2,0.1,0.3,0.1,0.5v33.2c0,0.2,0,0.3-0.1,0.5l-0.1,0.1l-0.1,0.1c-0.2,0.1-0.3,0.1-0.5,0.1h-5.5
		c-0.2,0-0.4,0-0.6-0.1l-0.1-0.1l-0.1-0.1c-0.1-0.1-0.1-0.3-0.1-0.5v-33.2c0-0.2,0-0.3,0.1-0.5l0.1-0.1l0.1-0.1
		c0.2-0.1,0.4-0.1,0.6-0.1H208.8L208.8,186.4z M264.6,214h-24.2l-3.6,6.7c-0.2,0.3-0.5,0.5-0.8,0.5h-7.3l17-31.1
		c0.6-1,1.4-2.3,2.4-2.9c0.8-0.5,1.7-0.7,2.6-0.7h3c1.1,0,2.1,0.2,3.1,0.7c1,0.6,1.9,1.9,2.5,2.9l17.1,31.1h-7.1
		c-0.4,0-0.7-0.1-0.8-0.4L264.6,214L264.6,214z M328.4,214c0.2,0.3,0.6,0.5,1,0.5h0.5c0.5,0,0.8-0.4,0.8-0.9v-26.4
		c0-0.2,0-0.3,0.1-0.5l0.1-0.1l0.1-0.1c0.2-0.1,0.3-0.1,0.5-0.1h5.3c0.2,0,0.3,0,0.5,0.1l0.1,0.1l0.1,0.1c0.1,0.2,0.1,0.3,0.1,0.5
		v29.1c0,1.2-0.1,3.1-1,3.9c-0.8,0.8-2.1,1-3.2,1h-4.4c-0.6,0-1.3,0-1.9-0.1c-0.4-0.1-0.9-0.2-1.3-0.4c-0.4-0.2-0.8-0.5-1.1-0.8
		c-0.5-0.5-0.9-1-1.3-1.6l-18.9-24.7c-0.3-0.3-0.6-0.5-1-0.5h-0.5c-0.5,0-0.8,0.4-0.8,0.9v26.4c0,0.2,0,0.3-0.1,0.5L302,221
		l-0.1,0.1c-0.2,0.1-0.3,0.1-0.5,0.1h-5.3c-0.2,0-0.4,0-0.6-0.1l-0.1-0.1l-0.1-0.1c-0.1-0.1-0.1-0.3-0.1-0.5v-29.1
		c0-1.2,0.1-3.1,1-3.9c0.8-0.8,2.1-1,3.2-1h4.5c0.7,0,1.3,0,2,0.1c0.4,0.1,0.9,0.2,1.3,0.4c0.4,0.2,0.8,0.5,1.1,0.8
		c0.4,0.5,0.9,1,1.2,1.5L328.4,214L328.4,214z M365.5,186.4c0.2,0,0.3,0,0.5,0.1l0.1,0.1l0.1,0.1c0.1,0.2,0.1,0.3,0.1,0.5v33.2
		c0,0.2,0,0.3-0.1,0.5l-0.1,0.1l-0.1,0.1c-0.2,0.1-0.3,0.1-0.5,0.1h-5.5c-0.2,0-0.4,0-0.6-0.1l-0.1-0.1l-0.1-0.1
		c-0.1-0.1-0.1-0.3-0.1-0.5v-33.2c0-0.2,0-0.3,0.1-0.5l0.1-0.1l0.1-0.1c0.2-0.1,0.4-0.1,0.6-0.1H365.5L365.5,186.4z M424.4,186.4
		c0.2,0,0.3,0,0.5,0.1l0.1,0.1l0.1,0.1c0.1,0.2,0.1,0.3,0.1,0.5v5c0,0.2,0,0.4-0.1,0.6l-0.1,0.1l-0.1,0.1c-0.1,0.1-0.3,0.1-0.5,0.1
		h-22.5c-1.1,0-2.3,0.1-3.4,0.3c-0.8,0.2-1.6,0.6-2.2,1.2c-0.6,0.6-1,1.4-1.2,2.3c-0.3,1.1-0.3,2.3-0.3,3.4v7.2
		c0,1.1,0.1,2.3,0.3,3.5c0.2,0.8,0.6,1.7,1.2,2.3c0.6,0.6,1.4,1,2.2,1.2c1.1,0.3,2.2,0.3,3.4,0.3h22.5c0.2,0,0.3,0,0.5,0.1l0.1,0.1
		l0.1,0.1c0.1,0.2,0.1,0.3,0.1,0.5v5c0,0.2,0,0.3-0.1,0.5L425,221l-0.1,0.1c-0.2,0.1-0.3,0.1-0.5,0.1h-22.9c-2.1,0-4.4-0.1-6.4-0.7
		c-1.6-0.4-3-1.1-4.2-2.2c-1.2-1.1-1.9-2.5-2.4-4c-0.6-1.9-0.8-4.1-0.8-6.1v-8.7c0-2,0.2-4.1,0.8-6.1c0.5-1.5,1.2-2.9,2.4-4
		c1.2-1.1,2.7-1.8,4.2-2.2c2.1-0.6,4.3-0.7,6.4-0.7H424.4L424.4,186.4z M14.5,208.8h18.7l-8.3-15.4c-0.2-0.3-0.5-0.6-0.9-0.6h-0.3
		c-0.4,0-0.7,0.2-0.9,0.5L14.5,208.8L14.5,208.8z M148.6,206v7.9c0,0.6,0.4,1,1,1h20.8c1,0,2.3-0.1,3.1-0.8c0.8-0.7,1-1.7,1-2.6
		v-1.9c0-1-0.3-2-1.1-2.7c-0.9-0.8-2.6-0.9-3.7-0.9H148.6L148.6,206z M148.6,201.2h21.1c1.1,0,2.8-0.1,3.7-0.8c0.8-0.6,1-1.5,1-2.5
		v-1.7c0-1-0.2-1.9-1-2.6c-0.8-0.7-2.1-0.8-3.1-0.8h-20.7c-0.6,0-1,0.4-1,1V201.2L148.6,201.2z M243.2,208.8h18.7l-8.3-15.4
		c-0.2-0.3-0.5-0.6-0.9-0.6h-0.3c-0.4,0-0.7,0.2-0.9,0.5L243.2,208.8L243.2,208.8z"/>
</g>
</svg>
