<?xml version="1.0" encoding="utf-8"?>
<!-- Generator: Adobe Illustrator 23.0.0, SVG Export Plug-In . SVG Version: 6.00 Build 0)  -->
<svg version="1.1" id="facebook_4_" xmlns="http://www.w3.org/2000/svg" xmlns:xlink="http://www.w3.org/1999/xlink" x="0px"
	 y="0px" viewBox="0 0 10 19.7" style="enable-background:new 0 0 10 19.7;" xml:space="preserve">
<style type="text/css">
	.st0{fill:#7D838F;}
</style>
<path id="XMLID_835_" class="st0" d="M0.3,10.5h2.2v8.9c0,0.2,0.1,0.3,0.3,0.3l0,0h3.7c0.2,0,0.3-0.1,0.3-0.3v0v-8.8h2.5
	c0.2,0,0.3-0.1,0.3-0.3L10,7c0-0.2-0.1-0.3-0.3-0.4c0,0,0,0,0,0H6.8V4.6c0-0.6,0.3-0.9,1-0.9h1.9c0.2,0,0.3-0.1,0.3-0.3c0,0,0,0,0,0
	v-3C10,0.1,9.8,0,9.6,0c0,0,0,0,0,0H6.9C5.8,0,4.6,0.4,3.7,1.2C2.9,2,2.4,3.1,2.6,4.2v2.4H0.3C0.1,6.6,0,6.8,0,6.9v0v3.2
	C0,10.4,0.1,10.5,0.3,10.5z"/>
</svg>
