<?xml version="1.0" encoding="utf-8"?>
<!-- Generator: Adobe Illustrator 23.0.0, SVG Export Plug-In . SVG Version: 6.00 Build 0)  -->
<svg version="1.1" id="Layer_1" xmlns="http://www.w3.org/2000/svg" xmlns:xlink="http://www.w3.org/1999/xlink" x="0px" y="0px"
	 viewBox="0 0 19.3 19.3" style="enable-background:new 0 0 19.3 19.3;" xml:space="preserve">
<style type="text/css">
	.st0{fill:#7D838F;}
</style>
<g id="instagram_1_">
	<g id="Group_4">
		<g id="Group_3">
			<path id="Path_2" class="st0" d="M13.3,0H6C2.7,0,0,2.7,0,6v7.3c0,3.3,2.7,6,6,6h7.3c3.3,0,6-2.7,6-6V6C19.3,2.7,16.6,0,13.3,0z
				 M17.5,13.3c0,2.3-1.9,4.2-4.2,4.2H6c-2.3,0-4.2-1.9-4.2-4.2V6c0-2.3,1.9-4.2,4.2-4.2h7.3c2.3,0,4.2,1.9,4.2,4.2V13.3z"/>
		</g>
	</g>
	<g id="Group_6" transform="translate(4.835 4.835)">
		<g id="Group_5">
			<path id="Path_3" class="st0" d="M4.8,0C2.2,0,0,2.2,0,4.8s2.2,4.8,4.8,4.8c2.7,0,4.8-2.2,4.8-4.8C9.7,2.2,7.5,0,4.8,0z M4.8,7.9
				c-1.7,0-3-1.4-3-3c0-1.7,1.4-3,3-3c1.7,0,3,1.4,3,3C7.9,6.5,6.5,7.9,4.8,7.9z"/>
		</g>
	</g>
	<g id="Group_8" transform="translate(14.225 3.828)">
		<g id="Group_7">
			<circle id="Ellipse_1" class="st0" cx="0.6" cy="0.6" r="0.6"/>
		</g>
	</g>
</g>
</svg>
