<?xml version="1.0" encoding="utf-8"?>
<!-- Generator: Adobe Illustrator 17.0.0, SVG Export Plug-In . SVG Version: 6.00 Build 0)  -->
<!DOCTYPE svg PUBLIC "-//W3C//DTD SVG 1.1//EN" "http://www.w3.org/Graphics/SVG/1.1/DTD/svg11.dtd">
<svg version="1.1" id="Layer_1" xmlns="http://www.w3.org/2000/svg" xmlns:xlink="http://www.w3.org/1999/xlink" x="0px" y="0px"
	 width="16.047px" height="20.66px" viewBox="0 0 16.047 20.66" enable-background="new 0 0 16.047 20.66" xml:space="preserve">
<g>
	<path d="M8.115,0.09C3.684,0.041,0.052,3.593,0.002,8.024c0,6.425,7.253,12.375,7.253,12.375c0.455,0.348,1.086,0.348,1.541,0
		c0,0,7.253-5.95,7.253-12.375C16,3.663,12.477,0.139,8.115,0.09z M8.028,12.061c-2.23,0-4.037-1.807-4.037-4.037
		c0-2.23,1.807-4.037,4.037-4.037s4.037,1.807,4.037,4.037C12.063,10.253,10.257,12.059,8.028,12.061z"/>
</g>
</svg>
