<svg xmlns="http://www.w3.org/2000/svg" xmlns:xlink="http://www.w3.org/1999/xlink" id="Layer_1" x="0" y="0" version="1.1" viewBox="0 0 16.1 20.5" xml:space="preserve" style="enable-background:new 0 0 16.1 20.5"><style type="text/css">.st0{fill:#7d838f}</style><g id="pinterest"><path id="XMLID_799_" d="M14,2.1C12.5,0.7,10.5,0,8.5,0C6.1-0.1,3.8,0.8,2.1,2.5C0.8,3.8,0,5.6,0,7.5 c0,2.3,1,4,2.5,4.7c0.1,0,0.2,0.1,0.3,0.1c0.3,0,0.6-0.2,0.7-0.6c0.1-0.2,0.2-0.7,0.2-0.9c0.1-0.3,0-0.7-0.2-0.9 c-0.5-0.6-0.7-1.3-0.7-2c0-2.8,2.3-5.1,5.1-5.2c0.1,0,0.1,0,0.2,0c2.7,0,4.4,1.6,4.4,4.1c0,1.4-0.3,2.8-1,4.1 c-0.4,0.9-1.3,1.6-2.3,1.6c-0.5,0-0.9-0.2-1.2-0.6c-0.3-0.3-0.4-0.8-0.2-1.2C8,10.1,8.1,9.6,8.3,9c0.3-0.8,0.5-1.7,0.6-2.6 c0.1-1-0.6-1.9-1.7-2c-0.1,0-0.1,0-0.2,0c-1.4,0-2.5,1.4-2.5,3.3c0,0.6,0.1,1.3,0.3,1.8l-1.4,6.1c-0.1,0.5-0.8,4.4,0.3,4.7 C5,20.8,6.2,17,6.3,16.5c0.1-0.4,0.4-1.7,0.6-2.5c0.7,0.7,1.7,1,2.6,1c1.9,0,3.6-0.9,4.7-2.4c1.2-1.7,1.8-3.7,1.8-5.8 C16.1,5.1,15.3,3.3,14,2.1z" class="st0"/></g></svg>