<?xml version="1.0" encoding="utf-8"?>
<!-- Generator: Adobe Illustrator 23.0.0, SVG Export Plug-In . SVG Version: 6.00 Build 0)  -->
<svg version="1.1" id="Layer_1" xmlns="http://www.w3.org/2000/svg" xmlns:xlink="http://www.w3.org/1999/xlink" x="0px" y="0px"
	 viewBox="0 0 20.5 16.6" style="enable-background:new 0 0 20.5 16.6;" xml:space="preserve">
<style type="text/css">
	.st0{fill:#7D838F;}
</style>
<g id="twitter-logo-silhouette">
	<g id="Group_2">
		<path id="Path_1" class="st0" d="M20.5,2c-0.8,0.3-1.6,0.6-2.4,0.7c0.9-0.5,1.5-1.4,1.8-2.3c-0.8,0.5-1.7,0.8-2.7,1
			c-1.6-1.7-4.3-1.8-5.9-0.2c-1.1,1-1.6,2.6-1.2,4C6.7,5,3.6,3.4,1.4,0.8C0.3,2.7,0.9,5.1,2.7,6.4c-0.7,0-1.3-0.2-1.9-0.5v0.1
			c0,2,1.4,3.7,3.4,4.1c-0.4,0.1-0.7,0.1-1.1,0.1c-0.3,0-0.5,0-0.8-0.1C2.8,11.8,4.4,13,6.2,13c-1.5,1.2-3.3,1.8-5.2,1.8
			c-0.3,0-0.7,0-1-0.1c1.9,1.2,4.2,1.9,6.4,1.9c6.6,0,11.9-5.2,12-11.8c0-0.1,0-0.1,0-0.2l0-0.5C19.2,3.5,19.9,2.8,20.5,2z"/>
	</g>
</g>
</svg>
